<svg xmlns="http://www.w3.org/2000/svg"
    width="200px"
    height="200px"
    viewBox="0 0 500 400">
    <path
        fill="#E4A933"
        d="M347.26,161.51m-7.76,0a7.76,7.76 0,1 1,15.52 0a7.76,7.76 0,1 1,-15.52 0" />
    <path
        fill="#E4A933"
        d="M361.4,206.62c-0.16,0 -0.33,-0.01 -0.5,-0.02c-2.77,-0.27 -4.8,-2.74 -4.53,-5.52c0.88,-8.93 -0.8,-17.06 -4.99,-24.15c-1.42,-2.4 -0.62,-5.5 1.78,-6.92c2.4,-1.41 5.5,-0.62 6.91,1.78c5.3,8.97 7.44,19.16 6.35,30.27C366.16,204.67 363.97,206.62 361.4,206.62z" />
    <path
        fill="#E4A933"
        d="M325.9,178.16m-7.76,0a7.76,7.76 0,1 1,15.52 0a7.76,7.76 0,1 1,-15.52 0" />
    <path
        fill="#E4A933"
        d="M335.78,252.48c-1.61,0 -3.19,-0.77 -4.17,-2.2c-16.07,-23.53 -13.41,-42.18 -11.98,-52.19c0.27,-1.9 0.51,-3.53 0.5,-4.54c-0.01,-2.79 2.25,-5.05 5.04,-5.06c0,0 0.01,0 0.01,0c2.78,0 5.04,2.25 5.05,5.04c0,1.73 -0.28,3.7 -0.6,5.98c-1.32,9.27 -3.53,24.78 10.32,45.08c1.57,2.3 0.98,5.44 -1.32,7.02C337.75,252.19 336.76,252.48 335.78,252.48z" />
    <path
        fill="#C4610E"
        d="M331.51,343.43c-8.72,0 -17.14,-2.12 -25.26,-6.36c-13.08,-7.51 -22.35,-19.26 -27.8,-35.25c-1.21,-4.24 -1.82,-8.05 -1.82,-11.45c0,-3.27 0.48,-6.54 1.45,-9.81c0.97,-3.27 2.48,-6.3 4.54,-9.09c2.06,-2.79 4.42,-5.15 7.09,-7.09c1.93,-0.6 3.75,-0.91 5.45,-0.91c3.03,0 6.2,1.12 9.54,3.36c3.33,2.24 5.6,5.61 6.81,10.08c0.24,0.97 0.36,1.94 0.36,2.91c0,3.27 -1.57,6.36 -4.72,9.27c-0.85,0.85 -1.27,2.3 -1.27,4.36c0,4.24 2,9.02 6,14.36c2.78,3.51 6.42,6.06 10.9,7.63c2.79,1.09 5.33,1.63 7.63,1.63c2.42,0 4.42,-0.3 6,-0.91c4.36,-2.06 6.6,-5.75 6.72,-11.08c-0.12,-5.33 -2.12,-10.84 -6,-16.54c-0.12,0 -0.18,-0.06 -0.18,-0.18c-5.57,-8.48 -12.9,-16.35 -21.99,-23.62c-4.24,-3.75 -8.54,-7.69 -12.9,-11.81c-6.9,-7.26 -12.06,-13.69 -15.45,-19.26c-8.24,-13.45 -12.35,-27.98 -12.35,-43.61c0.12,-15.27 4.72,-29.62 13.81,-43.07c4.24,-5.69 9.33,-11.02 15.27,-15.99c11.75,-10.05 24.95,-15.2 39.61,-15.44c1.57,0 3.15,0.12 4.72,0.36c9.45,0.37 18.23,2.85 26.35,7.45c4.12,2.3 8.66,6.12 13.63,11.45c4,4.84 7.09,9.27 9.27,13.27l0.91,2c2.54,4.36 4.3,8.96 5.27,13.81c1.09,4.12 1.63,8.36 1.63,12.72l-0.18,4.36c-0.49,5.09 -1.76,10.24 -3.82,15.44l-0.73,1.27c-0.85,2.06 -1.94,3.93 -3.27,5.63l-0.55,0.73c-3.03,4.12 -6.61,7.39 -10.72,9.81c-5.45,3.28 -11.57,4.91 -18.35,4.91c-8.48,0 -15.62,-2.36 -21.44,-7.09l-0.55,-0.36c-3.39,-2.67 -6,-6.3 -7.81,-10.91l-0.18,-0.18c-0.97,-2.78 -1.45,-5.39 -1.45,-7.81c0,-1.45 0.18,-2.91 0.54,-4.36c0.36,-1.45 1,-2.78 1.91,-3.99c0.91,-1.21 1.91,-2.03 3,-2.45c1.09,-0.43 2,-0.64 2.72,-0.64c1.09,0 2.18,0.97 3.27,2.91c1.09,1.94 3.09,4.06 6,6.36c2.54,0.84 4.84,1.27 6.9,1.27c4.24,0 7.45,-1.88 9.63,-5.63c2.18,-3.75 3.27,-7.93 3.27,-12.54c0,-2.55 -0.7,-6.54 -2.09,-11.99c-1.39,-5.45 -6.15,-10.12 -14.26,-14c-5.81,-1.94 -10.54,-2.91 -14.17,-2.91c-0.72,0 -2.24,0.18 -4.54,0.55c-2.3,0.36 -6.24,2.54 -11.81,6.54c-4,2.79 -7.39,6.3 -10.18,10.54c-2.79,4 -5.03,8.96 -6.72,14.9c-0.97,3.76 -1.45,7.51 -1.45,11.26c0,11.51 3.27,21.63 9.81,30.35c3.63,5.09 8.66,10.48 15.08,16.17c12.23,10.42 21.68,20.6 28.35,30.53c8.6,12.84 12.9,24.77 12.9,35.79c0,11.15 -3.15,20.47 -9.45,27.98C356.52,338.64 345.56,343.43 331.51,343.43zM332.41,317.27l-0.36,-0.18h-5.27l3.63,0.18H332.41z" />
</svg>
